name ./resultDataOpenSim/trcMotMarkerGrf/sub10/grf-15-04.mot
datacolumns 19
datarows 27
range 0.50000000 0.60400000
endheader

                time	     ground_force_vx	     ground_force_vy	     ground_force_vz	     ground_force_px	     ground_force_py	     ground_force_pz	   l_ground_force_vx	   l_ground_force_vy	   l_ground_force_vz	   l_ground_force_px	   l_ground_force_py	   l_ground_force_pz	     ground_torque_x	     ground_torque_y	     ground_torque_z	   l_ground_torque_x	   l_ground_torque_y	   l_ground_torque_z	
          0.50000000	         76.69113993	        571.60340112	        -19.15397519	         -0.73581387	          0.00000000	         -0.03596745	          0.00000000	          0.00000000	          0.00000000	          0.00000000	          0.00000000	          0.00000000	          0.00000000	          5.40727952	          0.00000000	          0.00000000	          0.00000000	          0.00000000	
          0.50400000	         79.22249642	        590.03762412	        -21.02921759	         -0.73369064	          0.00000000	         -0.03578229	          0.00000000	          0.00000000	          0.00000000	          0.00000000	          0.00000000	          0.00000000	          0.00000000	          5.38219087	          0.00000000	          0.00000000	          0.00000000	          0.00000000	
          0.50800000	         81.81517469	        608.52790134	        -22.82585099	         -0.73149696	          0.00000000	         -0.03564468	          0.00000000	          0.00000000	          0.00000000	          0.00000000	          0.00000000	          0.00000000	          0.00000000	          5.33113395	          0.00000000	          0.00000000	          0.00000000	          0.00000000	
          0.51200000	         84.48718355	        626.85664815	        -24.41777374	         -0.72927933	          0.00000000	         -0.03554749	          0.00000000	          0.00000000	          0.00000000	          0.00000000	          0.00000000	          0.00000000	          0.00000000	          5.26316762	          0.00000000	          0.00000000	          0.00000000	          0.00000000	
          0.51600000	         87.20560494	        644.64581973	        -25.69248292	         -0.72697599	          0.00000000	         -0.03549702	          0.00000000	          0.00000000	          0.00000000	          0.00000000	          0.00000000	          0.00000000	          0.00000000	          5.18563191	          0.00000000	          0.00000000	          0.00000000	          0.00000000	
          0.52000000	         89.89242654	        661.53779392	        -26.55817678	         -0.72447632	          0.00000000	         -0.03550209	          0.00000000	          0.00000000	          0.00000000	          0.00000000	          0.00000000	          0.00000000	          0.00000000	          5.10247614	          0.00000000	          0.00000000	          0.00000000	          0.00000000	
          0.52400000	         92.47772505	        677.47354119	        -26.96824162	         -0.72177475	          0.00000000	         -0.03556183	          0.00000000	          0.00000000	          0.00000000	          0.00000000	          0.00000000	          0.00000000	          0.00000000	          5.01337665	          0.00000000	          0.00000000	          0.00000000	          0.00000000	
          0.52800000	         94.97090200	        692.74804554	        -26.94274686	         -0.71901493	          0.00000000	         -0.03567182	          0.00000000	          0.00000000	          0.00000000	          0.00000000	          0.00000000	          0.00000000	          0.00000000	          4.91356524	          0.00000000	          0.00000000	          0.00000000	          0.00000000	
          0.53200000	         97.45745804	        707.78519399	        -26.57063212	         -0.71636407	          0.00000000	         -0.03582943	          0.00000000	          0.00000000	          0.00000000	          0.00000000	          0.00000000	          0.00000000	          0.00000000	          4.79448494	          0.00000000	          0.00000000	          0.00000000	          0.00000000	
          0.53600000	        100.04793317	        722.86067342	        -25.98289624	         -0.71388384	          0.00000000	         -0.03604153	          0.00000000	          0.00000000	          0.00000000	          0.00000000	          0.00000000	          0.00000000	          0.00000000	          4.64566021	          0.00000000	          0.00000000	          0.00000000	          0.00000000	
          0.54000000	        102.86821087	        738.01742557	        -25.30756433	         -0.71153058	          0.00000000	         -0.03633001	          0.00000000	          0.00000000	          0.00000000	          0.00000000	          0.00000000	          0.00000000	          0.00000000	          4.45789389	          0.00000000	          0.00000000	          0.00000000	          0.00000000	
          0.54400000	        106.08658142	        753.22355329	        -24.62823785	         -0.70925723	          0.00000000	         -0.03671862	          0.00000000	          0.00000000	          0.00000000	          0.00000000	          0.00000000	          0.00000000	          0.00000000	          4.22711264	          0.00000000	          0.00000000	          0.00000000	          0.00000000	
          0.54800000	        109.90650423	        768.55508695	        -23.94202141	         -0.70712061	          0.00000000	         -0.03721687	          0.00000000	          0.00000000	          0.00000000	          0.00000000	          0.00000000	          0.00000000	          0.00000000	          3.95759949	          0.00000000	          0.00000000	          0.00000000	          0.00000000	
          0.55200000	        114.51032701	        784.13633839	        -23.12202314	         -0.70524602	          0.00000000	         -0.03782363	          0.00000000	          0.00000000	          0.00000000	          0.00000000	          0.00000000	          0.00000000	          0.00000000	          3.66344618	          0.00000000	          0.00000000	          0.00000000	          0.00000000	
          0.55600000	        120.00326401	        799.88376532	        -21.93191233	         -0.70368856	          0.00000000	         -0.03853768	          0.00000000	          0.00000000	          0.00000000	          0.00000000	          0.00000000	          0.00000000	          0.00000000	          3.36769394	          0.00000000	          0.00000000	          0.00000000	          0.00000000	
          0.56000000	        126.40208655	        815.37087442	        -20.10610075	         -0.70236978	          0.00000000	         -0.03935757	          0.00000000	          0.00000000	          0.00000000	          0.00000000	          0.00000000	          0.00000000	          0.00000000	          3.09937394	          0.00000000	          0.00000000	          0.00000000	          0.00000000	
          0.56400000	        133.66768663	        829.98187652	        -17.43976159	         -0.70115809	          0.00000000	         -0.04027371	          0.00000000	          0.00000000	          0.00000000	          0.00000000	          0.00000000	          0.00000000	          0.00000000	          2.88910996	          0.00000000	          0.00000000	          0.00000000	          0.00000000	
          0.56800000	        141.74456215	        843.18951112	        -13.83621837	         -0.69999410	          0.00000000	         -0.04126556	          0.00000000	          0.00000000	          0.00000000	          0.00000000	          0.00000000	          0.00000000	          0.00000000	          2.76400150	          0.00000000	          0.00000000	          0.00000000	          0.00000000	
          0.57200000	        150.57376816	        854.69470136	         -9.30684326	         -0.69892323	          0.00000000	         -0.04230600	          0.00000000	          0.00000000	          0.00000000	          0.00000000	          0.00000000	          0.00000000	          0.00000000	          2.74241793	          0.00000000	          0.00000000	          0.00000000	          0.00000000	
          0.57600000	        160.07001823	        864.34976631	         -3.95662667	         -0.69801464	          0.00000000	         -0.04336606	          0.00000000	          0.00000000	          0.00000000	          0.00000000	          0.00000000	          0.00000000	          0.00000000	          2.82943282	          0.00000000	          0.00000000	          0.00000000	          0.00000000	
          0.58000000	        170.08979844	        872.00666284	          2.01494722	         -0.69728122	          0.00000000	         -0.04442517	          0.00000000	          0.00000000	          0.00000000	          0.00000000	          0.00000000	          0.00000000	          0.00000000	          3.01392918	          0.00000000	          0.00000000	          0.00000000	          0.00000000	
          0.58400000	        180.44115443	        877.46801772	          8.30999912	         -0.69666782	          0.00000000	         -0.04547300	          0.00000000	          0.00000000	          0.00000000	          0.00000000	          0.00000000	          0.00000000	          0.00000000	          3.26850302	          0.00000000	          0.00000000	          0.00000000	          0.00000000	
          0.58800000	        190.94017814	        880.55979189	         14.55437243	         -0.69613072	          0.00000000	         -0.04650150	          0.00000000	          0.00000000	          0.00000000	          0.00000000	          0.00000000	          0.00000000	          0.00000000	          3.55278428	          0.00000000	          0.00000000	          0.00000000	          0.00000000	
          0.59200000	        201.44966803	        881.18607214	         20.35280523	         -0.69568351	          0.00000000	         -0.04749471	          0.00000000	          0.00000000	          0.00000000	          0.00000000	          0.00000000	          0.00000000	          0.00000000	          3.81980348	          0.00000000	          0.00000000	          0.00000000	          0.00000000	
          0.59600000	        211.85562473	        879.27034956	         25.35775345	         -0.69535829	          0.00000000	         -0.04842944	          0.00000000	          0.00000000	          0.00000000	          0.00000000	          0.00000000	          0.00000000	          0.00000000	          4.02407492	          0.00000000	          0.00000000	          0.00000000	          0.00000000	
          0.60000000	        222.02021762	        874.65722358	         29.32764109	         -0.69515000	          0.00000000	         -0.04929006	          0.00000000	          0.00000000	          0.00000000	          0.00000000	          0.00000000	          0.00000000	          0.00000000	          4.12954829	          0.00000000	          0.00000000	          0.00000000	          0.00000000	
          0.60400000	        231.77267018	        867.10061514	         32.16268078	         -0.69502290	          0.00000000	         -0.05007482	          0.00000000	          0.00000000	          0.00000000	          0.00000000	          0.00000000	          0.00000000	          0.00000000	          4.11559918	          0.00000000	          0.00000000	          0.00000000	          0.00000000	
